<svg xmlns="http://www.w3.org/2000/svg" viewBox="0 0 256 256" role="img" aria-labelledby="title desc">
  <title id="title">Marca Grimorio do Corvo</title>
  <desc id="desc">Silhueta grafica de um corvo sobre um grimorio.</desc>
  <defs>
    <linearGradient id="ink" x1="35" x2="230" y1="18" y2="240" gradientUnits="userSpaceOnUse">
      <stop stop-color="#f4d58d"/>
      <stop offset=".48" stop-color="#9b5de5"/>
      <stop offset="1" stop-color="#1dd3b0"/>
    </linearGradient>
    <filter id="glow" x="-20%" y="-20%" width="140%" height="140%">
      <feGaussianBlur stdDeviation="3.5" result="blur"/>
      <feMerge>
        <feMergeNode in="blur"/>
        <feMergeNode in="SourceGraphic"/>
      </feMerge>
    </filter>
  </defs>
  <rect width="256" height="256" rx="44" fill="#111217"/>
  <path fill="#191b24" d="M42 179c35-16 62-18 86-4 23-15 52-12 88 4v23c-39-15-68-16-88-2-20-14-49-13-86 2z"/>
  <path fill="none" stroke="url(#ink)" stroke-linecap="round" stroke-width="7" d="M48 178c33-15 59-17 80-3 22-14 49-12 80 2"/>
  <path fill="#07080d" d="M78 151c28-60 74-82 137-89-16 17-29 33-37 51 18 2 31 8 40 20-35-3-62 4-80 22-15 15-32 22-60-4z"/>
  <path fill="#0b0d14" d="M88 150c-11-12-24-17-40-15 13 9 20 20 21 35 13-8 20-13 19-20z"/>
  <path fill="url(#ink)" filter="url(#glow)" d="M167 89c13-6 27-10 43-12-10 10-18 20-25 31-9-7-15-13-18-19z"/>
  <circle cx="154" cy="101" r="5" fill="#f4d58d"/>
  <path fill="none" stroke="#f4d58d" stroke-linecap="round" stroke-width="5" d="M126 176v34M101 190c18-8 35-8 52 0"/>
</svg>
